<svg xmlns="http://www.w3.org/2000/svg" xmlns:xlink="http://www.w3.org/1999/xlink" width="200" zoomAndPan="magnify" viewBox="0 0 150 149.999998" height="200" preserveAspectRatio="xMidYMid meet" version="1.0"><defs><clipPath id="c714b3ab30"><path d="M 45.0625 45.539062 L 104.9375 45.539062 L 104.9375 104.773438 L 45.0625 104.773438 Z M 45.0625 45.539062 " clip-rule="nonzero"/></clipPath></defs><g clip-path="url(#c714b3ab30)"><path fill="#f7b006" d="M 103.429688 71.863281 C 105.058594 73.5 105.058594 76.15625 103.429688 77.792969 L 77.804688 103.546875 C 76.992188 104.367188 75.921875 104.773438 74.855469 104.773438 C 73.789062 104.773438 72.722656 104.367188 71.90625 103.546875 L 46.285156 77.792969 C 44.65625 76.15625 44.65625 73.5 46.285156 71.863281 C 47.914062 70.222656 50.554688 70.222656 52.1875 71.863281 L 74.855469 94.648438 L 97.527344 71.863281 C 99.160156 70.222656 101.800781 70.222656 103.429688 71.863281 Z M 71.90625 78.453125 C 72.722656 79.269531 73.789062 79.679688 74.855469 79.679688 C 75.921875 79.679688 76.992188 79.269531 77.804688 78.453125 L 103.429688 52.703125 C 105.058594 51.058594 105.058594 48.40625 103.429688 46.769531 C 101.800781 45.128906 99.160156 45.128906 97.527344 46.769531 L 74.855469 69.554688 L 52.1875 46.769531 C 50.554688 45.128906 47.914062 45.128906 46.285156 46.769531 C 44.65625 48.40625 44.65625 51.058594 46.285156 52.703125 Z M 71.90625 78.453125 " fill-opacity="1" fill-rule="nonzero"/></g></svg>